<svg width="37" height="41" viewBox="0 0 37 41" fill="none" xmlns="http://www.w3.org/2000/svg">
<path fill-rule="evenodd" clip-rule="evenodd" d="M36.9858 20.2475C36.9858 31.2959 28.7211 40.2524 18.5261 40.2524C8.3311 40.2524 0.0664062 31.2959 0.0664062 20.2475C0.0664062 9.19917 8.3311 0.242706 18.5261 0.242706C28.7211 0.242706 36.9858 9.19917 36.9858 20.2475ZM13.7228 32.6322C12.2507 31.9773 10.8716 30.9865 9.70941 29.7271C9.32201 29.3073 8.95011 28.8538 8.60921 28.3669H17.1319V33.5726C15.9542 33.4383 14.8075 33.1192 13.7228 32.6322ZM22.9738 12.2625C23.5782 11.6076 24.5544 11.6076 25.1588 12.2625C25.7631 12.9174 25.7631 13.9753 25.1588 14.6135C24.5544 15.2684 23.5782 15.2684 22.9738 14.6135C22.3695 13.9753 22.3695 12.9174 22.9738 12.2625ZM9.70941 10.7847C11.8013 8.53445 14.4356 7.25819 17.1474 6.93913V17.4179L6.36231 17.4011C6.84268 14.9829 7.95838 12.6655 9.70941 10.7847ZM30.6288 17.4347L19.7817 17.4179V6.92234C22.509 7.22461 25.1743 8.50087 27.2662 10.7679C28.3044 11.893 29.1257 13.1693 29.73 14.5463C30.1329 15.4699 30.4273 16.4271 30.6288 17.4347ZM7.09061 25.5289C6.42429 23.8496 6.08338 22.0527 6.08338 20.2559L33.6195 20.2895L33.48 18.7277C33.3251 16.8637 32.8602 15.0333 32.1164 13.3372C31.3726 11.6411 30.3809 10.0794 29.1412 8.75276C26.2125 5.57891 22.354 4.00037 18.4956 4.00037C14.6371 4.00037 10.7786 5.57891 7.84991 8.75276C4.9057 11.9266 3.43359 16.0913 3.43359 20.2559C3.43359 24.4037 4.9057 28.5684 7.8654 31.7422C9.26003 33.2536 10.9181 34.4459 12.7311 35.2519C14.5286 36.058 16.4811 36.4946 18.4646 36.4946H19.7817L19.7972 25.5289H7.09061Z" fill="#1A1A1A"/>
</svg>
